<mxfile host="app.diagrams.net" modified="2021-10-02T02:15:18.246Z" agent="5.0 (Windows NT 10.0; Win64; x64) AppleWebKit/537.36 (KHTML, like Gecko) Chrome/93.0.4577.82 Safari/537.36" etag="HBmsidaY8jUHPmq47R80" version="13.10.4" type="github">
  <diagram id="XJsMljhmsiXyKOodXQsz" name="ER Diagrams">
    <mxGraphModel dx="1202" dy="551" grid="1" gridSize="10" guides="1" tooltips="1" connect="1" arrows="1" fold="1" page="1" pageScale="1" pageWidth="850" pageHeight="1100" math="0" shadow="0">
      <root>
        <mxCell id="0" />
        <mxCell id="1" parent="0" />
        <mxCell id="B2YDEnZmjGP8R_UpLVgf-128" value="" style="edgeStyle=orthogonalEdgeStyle;rounded=0;orthogonalLoop=1;jettySize=auto;html=1;" edge="1" parent="1" source="B2YDEnZmjGP8R_UpLVgf-2" target="B2YDEnZmjGP8R_UpLVgf-62">
          <mxGeometry relative="1" as="geometry">
            <mxPoint x="600" y="390.0588235294117" as="sourcePoint" />
            <mxPoint x="790" y="540" as="targetPoint" />
          </mxGeometry>
        </mxCell>
        <mxCell id="B2YDEnZmjGP8R_UpLVgf-71" value="" style="edgeStyle=orthogonalEdgeStyle;rounded=0;orthogonalLoop=1;jettySize=auto;html=1;" edge="1" parent="1" source="B2YDEnZmjGP8R_UpLVgf-2" target="B2YDEnZmjGP8R_UpLVgf-70">
          <mxGeometry relative="1" as="geometry" />
        </mxCell>
        <mxCell id="B2YDEnZmjGP8R_UpLVgf-73" value="" style="edgeStyle=orthogonalEdgeStyle;rounded=0;orthogonalLoop=1;jettySize=auto;html=1;" edge="1" parent="1" source="B2YDEnZmjGP8R_UpLVgf-2" target="B2YDEnZmjGP8R_UpLVgf-72">
          <mxGeometry relative="1" as="geometry" />
        </mxCell>
        <mxCell id="B2YDEnZmjGP8R_UpLVgf-75" value="" style="edgeStyle=orthogonalEdgeStyle;rounded=0;orthogonalLoop=1;jettySize=auto;html=1;" edge="1" parent="1" source="B2YDEnZmjGP8R_UpLVgf-2" target="B2YDEnZmjGP8R_UpLVgf-74">
          <mxGeometry relative="1" as="geometry" />
        </mxCell>
        <mxCell id="B2YDEnZmjGP8R_UpLVgf-74" value="Description" style="ellipse;whiteSpace=wrap;html=1;align=center;fillColor=#DAE8FC;" vertex="1" parent="1">
          <mxGeometry x="620" y="540" width="100" height="40" as="geometry" />
        </mxCell>
        <mxCell id="B2YDEnZmjGP8R_UpLVgf-2" value="Mediafile" style="rounded=1;arcSize=10;whiteSpace=wrap;html=1;align=center;fillColor=#A9C4EB;" vertex="1" parent="1">
          <mxGeometry x="500" y="370" width="100" height="40" as="geometry" />
        </mxCell>
        <mxCell id="B2YDEnZmjGP8R_UpLVgf-3" value="Playlist" style="rounded=1;arcSize=10;whiteSpace=wrap;html=1;align=center;fillColor=#A9C4EB;" vertex="1" parent="1">
          <mxGeometry x="560" y="140" width="100" height="40" as="geometry" />
        </mxCell>
        <mxCell id="B2YDEnZmjGP8R_UpLVgf-4" value="Channel" style="rounded=1;arcSize=10;whiteSpace=wrap;html=1;align=center;fillColor=#A9C4EB;" vertex="1" parent="1">
          <mxGeometry x="280" y="110" width="100" height="40" as="geometry" />
        </mxCell>
        <mxCell id="B2YDEnZmjGP8R_UpLVgf-6" value="Comment" style="rounded=1;arcSize=10;whiteSpace=wrap;html=1;align=center;fillColor=#A9C4EB;" vertex="1" parent="1">
          <mxGeometry x="330" y="540" width="100" height="40" as="geometry" />
        </mxCell>
        <mxCell id="B2YDEnZmjGP8R_UpLVgf-7" value="Contact List" style="rounded=1;arcSize=10;whiteSpace=wrap;html=1;align=center;fillColor=#A9C4EB;" vertex="1" parent="1">
          <mxGeometry x="40" y="520" width="100" height="40" as="geometry" />
        </mxCell>
        <mxCell id="B2YDEnZmjGP8R_UpLVgf-13" value="" style="edgeStyle=orthogonalEdgeStyle;rounded=0;orthogonalLoop=1;jettySize=auto;html=1;exitX=0;exitY=1;exitDx=0;exitDy=0;" edge="1" parent="1" source="B2YDEnZmjGP8R_UpLVgf-1" target="B2YDEnZmjGP8R_UpLVgf-12">
          <mxGeometry relative="1" as="geometry">
            <Array as="points">
              <mxPoint x="150" y="330" />
              <mxPoint x="100" y="330" />
            </Array>
          </mxGeometry>
        </mxCell>
        <mxCell id="B2YDEnZmjGP8R_UpLVgf-15" value="" style="edgeStyle=orthogonalEdgeStyle;rounded=0;orthogonalLoop=1;jettySize=auto;html=1;" edge="1" parent="1" source="B2YDEnZmjGP8R_UpLVgf-1" target="B2YDEnZmjGP8R_UpLVgf-14">
          <mxGeometry relative="1" as="geometry" />
        </mxCell>
        <mxCell id="B2YDEnZmjGP8R_UpLVgf-16" value="Email" style="ellipse;whiteSpace=wrap;html=1;align=center;fillColor=#DAE8FC;" vertex="1" parent="1">
          <mxGeometry x="50" y="190" width="100" height="40" as="geometry" />
        </mxCell>
        <mxCell id="B2YDEnZmjGP8R_UpLVgf-1" value="User" style="rounded=1;arcSize=10;whiteSpace=wrap;html=1;align=center;fillColor=#A9C4EB;" vertex="1" parent="1">
          <mxGeometry x="150" y="280" width="100" height="40" as="geometry" />
        </mxCell>
        <mxCell id="B2YDEnZmjGP8R_UpLVgf-17" value="" style="edgeStyle=orthogonalEdgeStyle;rounded=0;orthogonalLoop=1;jettySize=auto;html=1;exitX=0.25;exitY=0;exitDx=0;exitDy=0;" edge="1" parent="1" source="B2YDEnZmjGP8R_UpLVgf-1" target="B2YDEnZmjGP8R_UpLVgf-16">
          <mxGeometry relative="1" as="geometry" />
        </mxCell>
        <mxCell id="B2YDEnZmjGP8R_UpLVgf-14" value="Username" style="ellipse;whiteSpace=wrap;html=1;align=center;fillColor=#DAE8FC;" vertex="1" parent="1">
          <mxGeometry x="10" y="280" width="100" height="40" as="geometry" />
        </mxCell>
        <mxCell id="B2YDEnZmjGP8R_UpLVgf-12" value="UserID" style="ellipse;whiteSpace=wrap;html=1;align=center;fontStyle=4;fillColor=#DAE8FC;" vertex="1" parent="1">
          <mxGeometry x="50" y="350" width="100" height="40" as="geometry" />
        </mxCell>
        <mxCell id="B2YDEnZmjGP8R_UpLVgf-28" value="Subscribers ?" style="ellipse;whiteSpace=wrap;html=1;align=center;fillColor=#DAE8FC;" vertex="1" parent="1">
          <mxGeometry x="280" y="40" width="100" height="40" as="geometry" />
        </mxCell>
        <mxCell id="B2YDEnZmjGP8R_UpLVgf-29" value="" style="edgeStyle=orthogonalEdgeStyle;rounded=0;orthogonalLoop=1;jettySize=auto;html=1;" edge="1" parent="1" source="B2YDEnZmjGP8R_UpLVgf-4" target="B2YDEnZmjGP8R_UpLVgf-28">
          <mxGeometry relative="1" as="geometry" />
        </mxCell>
        <mxCell id="B2YDEnZmjGP8R_UpLVgf-31" value="Acct Creation Date" style="ellipse;whiteSpace=wrap;html=1;align=center;fillColor=#DAE8FC;" vertex="1" parent="1">
          <mxGeometry x="150" y="190" width="100" height="40" as="geometry" />
        </mxCell>
        <mxCell id="B2YDEnZmjGP8R_UpLVgf-32" value="" style="edgeStyle=orthogonalEdgeStyle;rounded=0;orthogonalLoop=1;jettySize=auto;html=1;" edge="1" parent="1" source="B2YDEnZmjGP8R_UpLVgf-1" target="B2YDEnZmjGP8R_UpLVgf-31">
          <mxGeometry relative="1" as="geometry" />
        </mxCell>
        <mxCell id="B2YDEnZmjGP8R_UpLVgf-33" value="owns" style="shape=rhombus;perimeter=rhombusPerimeter;whiteSpace=wrap;html=1;align=center;fillColor=#D5E8D4;" vertex="1" parent="1">
          <mxGeometry x="270" y="200" width="90" height="40" as="geometry" />
        </mxCell>
        <mxCell id="B2YDEnZmjGP8R_UpLVgf-35" value="" style="endArrow=none;html=1;rounded=0;exitX=0.5;exitY=1;exitDx=0;exitDy=0;entryX=0.5;entryY=0;entryDx=0;entryDy=0;" edge="1" parent="1" source="B2YDEnZmjGP8R_UpLVgf-4" target="B2YDEnZmjGP8R_UpLVgf-33">
          <mxGeometry relative="1" as="geometry">
            <mxPoint x="340" y="260" as="sourcePoint" />
            <mxPoint x="320" y="210" as="targetPoint" />
          </mxGeometry>
        </mxCell>
        <mxCell id="B2YDEnZmjGP8R_UpLVgf-36" value="1" style="resizable=0;html=1;align=right;verticalAlign=bottom;" connectable="0" vertex="1" parent="B2YDEnZmjGP8R_UpLVgf-35">
          <mxGeometry x="1" relative="1" as="geometry" />
        </mxCell>
        <mxCell id="B2YDEnZmjGP8R_UpLVgf-37" value="" style="endArrow=none;html=1;rounded=0;entryX=0.5;entryY=1;entryDx=0;entryDy=0;exitX=0.75;exitY=0;exitDx=0;exitDy=0;" edge="1" parent="1" source="B2YDEnZmjGP8R_UpLVgf-1" target="B2YDEnZmjGP8R_UpLVgf-33">
          <mxGeometry relative="1" as="geometry">
            <mxPoint x="290" y="260" as="sourcePoint" />
            <mxPoint x="450" y="260" as="targetPoint" />
          </mxGeometry>
        </mxCell>
        <mxCell id="B2YDEnZmjGP8R_UpLVgf-38" value="1" style="resizable=0;html=1;align=right;verticalAlign=bottom;" connectable="0" vertex="1" parent="B2YDEnZmjGP8R_UpLVgf-37">
          <mxGeometry x="1" relative="1" as="geometry" />
        </mxCell>
        <mxCell id="B2YDEnZmjGP8R_UpLVgf-42" value="Name" style="ellipse;whiteSpace=wrap;html=1;align=center;fillColor=#DAE8FC;" vertex="1" parent="1">
          <mxGeometry x="660" y="40" width="100" height="40" as="geometry" />
        </mxCell>
        <mxCell id="B2YDEnZmjGP8R_UpLVgf-43" value="" style="edgeStyle=orthogonalEdgeStyle;rounded=0;orthogonalLoop=1;jettySize=auto;html=1;" edge="1" parent="1" source="B2YDEnZmjGP8R_UpLVgf-3" target="B2YDEnZmjGP8R_UpLVgf-42">
          <mxGeometry relative="1" as="geometry" />
        </mxCell>
        <mxCell id="B2YDEnZmjGP8R_UpLVgf-44" value="Creation Date" style="ellipse;whiteSpace=wrap;html=1;align=center;fillColor=#DAE8FC;" vertex="1" parent="1">
          <mxGeometry x="550" y="30" width="100" height="40" as="geometry" />
        </mxCell>
        <mxCell id="B2YDEnZmjGP8R_UpLVgf-45" value="" style="edgeStyle=orthogonalEdgeStyle;rounded=0;orthogonalLoop=1;jettySize=auto;html=1;" edge="1" parent="1" target="B2YDEnZmjGP8R_UpLVgf-44">
          <mxGeometry relative="1" as="geometry">
            <mxPoint x="600" y="139" as="sourcePoint" />
          </mxGeometry>
        </mxCell>
        <mxCell id="B2YDEnZmjGP8R_UpLVgf-50" value="Channel ID" style="ellipse;whiteSpace=wrap;html=1;align=center;fontStyle=4;fillColor=#DAE8FC;" vertex="1" parent="1">
          <mxGeometry x="160" y="60" width="100" height="40" as="geometry" />
        </mxCell>
        <mxCell id="B2YDEnZmjGP8R_UpLVgf-51" value="" style="edgeStyle=orthogonalEdgeStyle;rounded=0;orthogonalLoop=1;jettySize=auto;html=1;" edge="1" parent="1" source="B2YDEnZmjGP8R_UpLVgf-4" target="B2YDEnZmjGP8R_UpLVgf-50">
          <mxGeometry relative="1" as="geometry" />
        </mxCell>
        <mxCell id="B2YDEnZmjGP8R_UpLVgf-52" value="Playlist ID" style="ellipse;whiteSpace=wrap;html=1;align=center;fontStyle=4;fillColor=#DAE8FC;" vertex="1" parent="1">
          <mxGeometry x="730" y="80" width="100" height="40" as="geometry" />
        </mxCell>
        <mxCell id="B2YDEnZmjGP8R_UpLVgf-53" value="" style="edgeStyle=orthogonalEdgeStyle;rounded=0;orthogonalLoop=1;jettySize=auto;html=1;exitX=1;exitY=0.25;exitDx=0;exitDy=0;" edge="1" parent="1" source="B2YDEnZmjGP8R_UpLVgf-3" target="B2YDEnZmjGP8R_UpLVgf-52">
          <mxGeometry relative="1" as="geometry">
            <Array as="points">
              <mxPoint x="780" y="150" />
            </Array>
          </mxGeometry>
        </mxCell>
        <mxCell id="B2YDEnZmjGP8R_UpLVgf-54" value="Title" style="ellipse;whiteSpace=wrap;html=1;align=center;fillColor=#DAE8FC;" vertex="1" parent="1">
          <mxGeometry x="740" y="490" width="100" height="40" as="geometry" />
        </mxCell>
        <mxCell id="B2YDEnZmjGP8R_UpLVgf-55" value="" style="edgeStyle=orthogonalEdgeStyle;rounded=0;orthogonalLoop=1;jettySize=auto;html=1;" edge="1" parent="1" source="B2YDEnZmjGP8R_UpLVgf-62" target="B2YDEnZmjGP8R_UpLVgf-54">
          <mxGeometry relative="1" as="geometry" />
        </mxCell>
        <mxCell id="B2YDEnZmjGP8R_UpLVgf-94" value="" style="edgeStyle=orthogonalEdgeStyle;rounded=0;orthogonalLoop=1;jettySize=auto;html=1;" edge="1" parent="1" source="B2YDEnZmjGP8R_UpLVgf-56" target="B2YDEnZmjGP8R_UpLVgf-72">
          <mxGeometry relative="1" as="geometry" />
        </mxCell>
        <mxCell id="B2YDEnZmjGP8R_UpLVgf-56" value="Mediafile ID" style="ellipse;whiteSpace=wrap;html=1;align=center;fontStyle=4;fillColor=#DAE8FC;" vertex="1" parent="1">
          <mxGeometry x="620" y="310" width="100" height="40" as="geometry" />
        </mxCell>
        <mxCell id="B2YDEnZmjGP8R_UpLVgf-57" value="" style="edgeStyle=orthogonalEdgeStyle;rounded=0;orthogonalLoop=1;jettySize=auto;html=1;" edge="1" parent="1" source="B2YDEnZmjGP8R_UpLVgf-2" target="B2YDEnZmjGP8R_UpLVgf-56">
          <mxGeometry relative="1" as="geometry" />
        </mxCell>
        <mxCell id="B2YDEnZmjGP8R_UpLVgf-58" value="Size" style="ellipse;whiteSpace=wrap;html=1;align=center;fillColor=#DAE8FC;" vertex="1" parent="1">
          <mxGeometry x="740" y="310" width="100" height="40" as="geometry" />
        </mxCell>
        <mxCell id="B2YDEnZmjGP8R_UpLVgf-59" value="" style="edgeStyle=orthogonalEdgeStyle;rounded=0;orthogonalLoop=1;jettySize=auto;html=1;" edge="1" parent="1" source="B2YDEnZmjGP8R_UpLVgf-2" target="B2YDEnZmjGP8R_UpLVgf-58">
          <mxGeometry relative="1" as="geometry" />
        </mxCell>
        <mxCell id="B2YDEnZmjGP8R_UpLVgf-61" value="" style="edgeStyle=orthogonalEdgeStyle;rounded=0;orthogonalLoop=1;jettySize=auto;html=1;" edge="1" parent="1" source="B2YDEnZmjGP8R_UpLVgf-2" target="B2YDEnZmjGP8R_UpLVgf-60">
          <mxGeometry relative="1" as="geometry" />
        </mxCell>
        <mxCell id="B2YDEnZmjGP8R_UpLVgf-64" value="View Count" style="ellipse;whiteSpace=wrap;html=1;align=center;fillColor=#DAE8FC;" vertex="1" parent="1">
          <mxGeometry x="620" y="490" width="100" height="40" as="geometry" />
        </mxCell>
        <mxCell id="B2YDEnZmjGP8R_UpLVgf-65" value="" style="edgeStyle=orthogonalEdgeStyle;rounded=0;orthogonalLoop=1;jettySize=auto;html=1;" edge="1" parent="1" source="B2YDEnZmjGP8R_UpLVgf-2" target="B2YDEnZmjGP8R_UpLVgf-64">
          <mxGeometry relative="1" as="geometry" />
        </mxCell>
        <mxCell id="B2YDEnZmjGP8R_UpLVgf-67" value="" style="edgeStyle=orthogonalEdgeStyle;rounded=0;orthogonalLoop=1;jettySize=auto;html=1;" edge="1" parent="1" source="B2YDEnZmjGP8R_UpLVgf-2">
          <mxGeometry relative="1" as="geometry">
            <mxPoint x="790" y="430" as="targetPoint" />
          </mxGeometry>
        </mxCell>
        <mxCell id="B2YDEnZmjGP8R_UpLVgf-69" value="" style="edgeStyle=orthogonalEdgeStyle;rounded=0;orthogonalLoop=1;jettySize=auto;html=1;" edge="1" parent="1" source="B2YDEnZmjGP8R_UpLVgf-2">
          <mxGeometry relative="1" as="geometry">
            <mxPoint x="670" y="430" as="targetPoint" />
          </mxGeometry>
        </mxCell>
        <mxCell id="B2YDEnZmjGP8R_UpLVgf-70" value="Category" style="ellipse;whiteSpace=wrap;html=1;align=center;fillColor=#DAE8FC;" vertex="1" parent="1">
          <mxGeometry x="740" y="370" width="100" height="40" as="geometry" />
        </mxCell>
        <mxCell id="B2YDEnZmjGP8R_UpLVgf-72" value="Sharing" style="ellipse;whiteSpace=wrap;html=1;align=center;fillColor=#DAE8FC;" vertex="1" parent="1">
          <mxGeometry x="620" y="430" width="100" height="40" as="geometry" />
        </mxCell>
        <mxCell id="B2YDEnZmjGP8R_UpLVgf-77" value="subscribes to" style="shape=rhombus;perimeter=rhombusPerimeter;whiteSpace=wrap;html=1;align=center;fillColor=#D5E8D4;" vertex="1" parent="1">
          <mxGeometry x="330" y="240" width="100" height="50" as="geometry" />
        </mxCell>
        <mxCell id="B2YDEnZmjGP8R_UpLVgf-81" value="" style="endArrow=none;html=1;rounded=0;entryX=0.5;entryY=1;entryDx=0;entryDy=0;exitX=1;exitY=0.5;exitDx=0;exitDy=0;" edge="1" parent="1" source="B2YDEnZmjGP8R_UpLVgf-1" target="B2YDEnZmjGP8R_UpLVgf-77">
          <mxGeometry relative="1" as="geometry">
            <mxPoint x="400" y="280" as="sourcePoint" />
            <mxPoint x="560" y="280" as="targetPoint" />
          </mxGeometry>
        </mxCell>
        <mxCell id="B2YDEnZmjGP8R_UpLVgf-82" value="N" style="resizable=0;html=1;align=right;verticalAlign=bottom;" connectable="0" vertex="1" parent="B2YDEnZmjGP8R_UpLVgf-81">
          <mxGeometry x="1" relative="1" as="geometry" />
        </mxCell>
        <mxCell id="B2YDEnZmjGP8R_UpLVgf-83" value="" style="endArrow=none;html=1;rounded=0;exitX=0.75;exitY=1;exitDx=0;exitDy=0;entryX=0.5;entryY=0;entryDx=0;entryDy=0;" edge="1" parent="1" source="B2YDEnZmjGP8R_UpLVgf-4" target="B2YDEnZmjGP8R_UpLVgf-77">
          <mxGeometry relative="1" as="geometry">
            <mxPoint x="420" y="200" as="sourcePoint" />
            <mxPoint x="580" y="200" as="targetPoint" />
            <Array as="points" />
          </mxGeometry>
        </mxCell>
        <mxCell id="B2YDEnZmjGP8R_UpLVgf-84" value="N" style="resizable=0;html=1;align=right;verticalAlign=bottom;" connectable="0" vertex="1" parent="B2YDEnZmjGP8R_UpLVgf-83">
          <mxGeometry x="1" relative="1" as="geometry" />
        </mxCell>
        <mxCell id="B2YDEnZmjGP8R_UpLVgf-85" value="contains" style="shape=rhombus;perimeter=rhombusPerimeter;whiteSpace=wrap;html=1;align=center;fillColor=#D5E8D4;" vertex="1" parent="1">
          <mxGeometry x="620" y="230" width="90" height="40" as="geometry" />
        </mxCell>
        <mxCell id="B2YDEnZmjGP8R_UpLVgf-86" value="" style="endArrow=none;html=1;rounded=0;exitX=0.5;exitY=1;exitDx=0;exitDy=0;entryX=1;entryY=0;entryDx=0;entryDy=0;" edge="1" parent="1" source="B2YDEnZmjGP8R_UpLVgf-3" target="B2YDEnZmjGP8R_UpLVgf-85">
          <mxGeometry relative="1" as="geometry">
            <mxPoint x="390" y="310" as="sourcePoint" />
            <mxPoint x="550" y="310" as="targetPoint" />
          </mxGeometry>
        </mxCell>
        <mxCell id="B2YDEnZmjGP8R_UpLVgf-87" value="N" style="resizable=0;html=1;align=right;verticalAlign=bottom;" connectable="0" vertex="1" parent="B2YDEnZmjGP8R_UpLVgf-86">
          <mxGeometry x="1" relative="1" as="geometry" />
        </mxCell>
        <mxCell id="B2YDEnZmjGP8R_UpLVgf-88" value="" style="endArrow=none;html=1;rounded=0;entryX=0.5;entryY=1;entryDx=0;entryDy=0;exitX=0.75;exitY=0;exitDx=0;exitDy=0;" edge="1" parent="1" source="B2YDEnZmjGP8R_UpLVgf-2" target="B2YDEnZmjGP8R_UpLVgf-85">
          <mxGeometry relative="1" as="geometry">
            <mxPoint x="330" y="360" as="sourcePoint" />
            <mxPoint x="490" y="360" as="targetPoint" />
          </mxGeometry>
        </mxCell>
        <mxCell id="B2YDEnZmjGP8R_UpLVgf-89" value="N" style="resizable=0;html=1;align=right;verticalAlign=bottom;" connectable="0" vertex="1" parent="B2YDEnZmjGP8R_UpLVgf-88">
          <mxGeometry x="1" relative="1" as="geometry" />
        </mxCell>
        <mxCell id="B2YDEnZmjGP8R_UpLVgf-60" value="File Type" style="ellipse;whiteSpace=wrap;html=1;align=center;fillColor=#DAE8FC;" vertex="1" parent="1">
          <mxGeometry x="620" y="370" width="100" height="40" as="geometry" />
        </mxCell>
        <mxCell id="B2YDEnZmjGP8R_UpLVgf-95" value="contains" style="shape=rhombus;perimeter=rhombusPerimeter;whiteSpace=wrap;html=1;align=center;fillColor=#D5E8D4;" vertex="1" parent="1">
          <mxGeometry x="480" y="240" width="90" height="40" as="geometry" />
        </mxCell>
        <mxCell id="B2YDEnZmjGP8R_UpLVgf-96" value="" style="endArrow=none;html=1;rounded=0;exitX=1;exitY=0.5;exitDx=0;exitDy=0;entryX=1;entryY=0;entryDx=0;entryDy=0;" edge="1" parent="1" target="B2YDEnZmjGP8R_UpLVgf-95" source="B2YDEnZmjGP8R_UpLVgf-4">
          <mxGeometry relative="1" as="geometry">
            <mxPoint x="470" y="190" as="sourcePoint" />
            <mxPoint x="410" y="320" as="targetPoint" />
          </mxGeometry>
        </mxCell>
        <mxCell id="B2YDEnZmjGP8R_UpLVgf-97" value="N" style="resizable=0;html=1;align=right;verticalAlign=bottom;" connectable="0" vertex="1" parent="B2YDEnZmjGP8R_UpLVgf-96">
          <mxGeometry x="1" relative="1" as="geometry" />
        </mxCell>
        <mxCell id="B2YDEnZmjGP8R_UpLVgf-98" value="" style="endArrow=none;html=1;rounded=0;entryX=0.5;entryY=1;entryDx=0;entryDy=0;exitX=0.5;exitY=0;exitDx=0;exitDy=0;" edge="1" parent="1" target="B2YDEnZmjGP8R_UpLVgf-95" source="B2YDEnZmjGP8R_UpLVgf-2">
          <mxGeometry relative="1" as="geometry">
            <mxPoint x="360" y="380" as="sourcePoint" />
            <mxPoint x="350" y="370" as="targetPoint" />
          </mxGeometry>
        </mxCell>
        <mxCell id="B2YDEnZmjGP8R_UpLVgf-99" value="N" style="resizable=0;html=1;align=right;verticalAlign=bottom;" connectable="0" vertex="1" parent="B2YDEnZmjGP8R_UpLVgf-98">
          <mxGeometry x="1" relative="1" as="geometry" />
        </mxCell>
        <mxCell id="B2YDEnZmjGP8R_UpLVgf-100" value="Date" style="ellipse;whiteSpace=wrap;html=1;align=center;fillColor=#DAE8FC;" vertex="1" parent="1">
          <mxGeometry x="330" y="620" width="100" height="40" as="geometry" />
        </mxCell>
        <mxCell id="B2YDEnZmjGP8R_UpLVgf-101" value="" style="edgeStyle=orthogonalEdgeStyle;rounded=0;orthogonalLoop=1;jettySize=auto;html=1;" edge="1" parent="1" source="B2YDEnZmjGP8R_UpLVgf-6" target="B2YDEnZmjGP8R_UpLVgf-100">
          <mxGeometry relative="1" as="geometry" />
        </mxCell>
        <mxCell id="B2YDEnZmjGP8R_UpLVgf-102" value="Content" style="ellipse;whiteSpace=wrap;html=1;align=center;fillColor=#DAE8FC;" vertex="1" parent="1">
          <mxGeometry x="210" y="610" width="100" height="40" as="geometry" />
        </mxCell>
        <mxCell id="B2YDEnZmjGP8R_UpLVgf-103" value="" style="edgeStyle=orthogonalEdgeStyle;rounded=0;orthogonalLoop=1;jettySize=auto;html=1;" edge="1" parent="1" source="B2YDEnZmjGP8R_UpLVgf-6" target="B2YDEnZmjGP8R_UpLVgf-102">
          <mxGeometry relative="1" as="geometry" />
        </mxCell>
        <mxCell id="B2YDEnZmjGP8R_UpLVgf-104" value="Parent" style="ellipse;whiteSpace=wrap;html=1;align=center;fillColor=#DAE8FC;" vertex="1" parent="1">
          <mxGeometry x="450" y="600" width="100" height="40" as="geometry" />
        </mxCell>
        <mxCell id="B2YDEnZmjGP8R_UpLVgf-105" value="" style="edgeStyle=orthogonalEdgeStyle;rounded=0;orthogonalLoop=1;jettySize=auto;html=1;" edge="1" parent="1" source="B2YDEnZmjGP8R_UpLVgf-6" target="B2YDEnZmjGP8R_UpLVgf-104">
          <mxGeometry relative="1" as="geometry" />
        </mxCell>
        <mxCell id="B2YDEnZmjGP8R_UpLVgf-107" value="manages" style="shape=rhombus;perimeter=rhombusPerimeter;whiteSpace=wrap;html=1;align=center;fillColor=#D5E8D4;" vertex="1" parent="1">
          <mxGeometry x="40" y="440" width="90" height="50" as="geometry" />
        </mxCell>
        <mxCell id="B2YDEnZmjGP8R_UpLVgf-108" value="" style="endArrow=none;html=1;rounded=0;entryX=0.5;entryY=0;entryDx=0;entryDy=0;exitX=0.25;exitY=1;exitDx=0;exitDy=0;" edge="1" parent="1" source="B2YDEnZmjGP8R_UpLVgf-1" target="B2YDEnZmjGP8R_UpLVgf-107">
          <mxGeometry relative="1" as="geometry">
            <mxPoint x="170" y="390" as="sourcePoint" />
            <mxPoint x="330" y="390" as="targetPoint" />
            <Array as="points">
              <mxPoint x="160" y="400" />
            </Array>
          </mxGeometry>
        </mxCell>
        <mxCell id="B2YDEnZmjGP8R_UpLVgf-109" value="1" style="resizable=0;html=1;align=right;verticalAlign=bottom;" connectable="0" vertex="1" parent="B2YDEnZmjGP8R_UpLVgf-108">
          <mxGeometry x="1" relative="1" as="geometry" />
        </mxCell>
        <mxCell id="B2YDEnZmjGP8R_UpLVgf-110" value="" style="endArrow=none;html=1;rounded=0;entryX=0.5;entryY=1;entryDx=0;entryDy=0;exitX=0.25;exitY=0;exitDx=0;exitDy=0;" edge="1" parent="1" source="B2YDEnZmjGP8R_UpLVgf-7" target="B2YDEnZmjGP8R_UpLVgf-107">
          <mxGeometry relative="1" as="geometry">
            <mxPoint x="20" y="620" as="sourcePoint" />
            <mxPoint x="180" y="620" as="targetPoint" />
          </mxGeometry>
        </mxCell>
        <mxCell id="B2YDEnZmjGP8R_UpLVgf-111" value="1" style="resizable=0;html=1;align=right;verticalAlign=bottom;" connectable="0" vertex="1" parent="B2YDEnZmjGP8R_UpLVgf-110">
          <mxGeometry x="1" relative="1" as="geometry" />
        </mxCell>
        <mxCell id="B2YDEnZmjGP8R_UpLVgf-112" value="lists" style="shape=rhombus;perimeter=rhombusPerimeter;whiteSpace=wrap;html=1;align=center;fillColor=#D5E8D4;" vertex="1" parent="1">
          <mxGeometry x="140" y="435" width="80" height="45" as="geometry" />
        </mxCell>
        <mxCell id="B2YDEnZmjGP8R_UpLVgf-113" value="" style="endArrow=none;html=1;rounded=0;entryX=0.5;entryY=1;entryDx=0;entryDy=0;exitX=0.75;exitY=0;exitDx=0;exitDy=0;" edge="1" parent="1" source="B2YDEnZmjGP8R_UpLVgf-7" target="B2YDEnZmjGP8R_UpLVgf-112">
          <mxGeometry relative="1" as="geometry">
            <mxPoint x="410" y="500" as="sourcePoint" />
            <mxPoint x="570" y="500" as="targetPoint" />
          </mxGeometry>
        </mxCell>
        <mxCell id="B2YDEnZmjGP8R_UpLVgf-114" value="N" style="resizable=0;html=1;align=right;verticalAlign=bottom;" connectable="0" vertex="1" parent="B2YDEnZmjGP8R_UpLVgf-113">
          <mxGeometry x="1" relative="1" as="geometry" />
        </mxCell>
        <mxCell id="B2YDEnZmjGP8R_UpLVgf-115" value="" style="endArrow=none;html=1;rounded=0;entryX=0.5;entryY=0;entryDx=0;entryDy=0;" edge="1" parent="1" target="B2YDEnZmjGP8R_UpLVgf-112">
          <mxGeometry relative="1" as="geometry">
            <mxPoint x="194" y="320" as="sourcePoint" />
            <mxPoint x="390" y="420" as="targetPoint" />
          </mxGeometry>
        </mxCell>
        <mxCell id="B2YDEnZmjGP8R_UpLVgf-116" value="N" style="resizable=0;html=1;align=right;verticalAlign=bottom;" connectable="0" vertex="1" parent="B2YDEnZmjGP8R_UpLVgf-115">
          <mxGeometry x="1" relative="1" as="geometry" />
        </mxCell>
        <mxCell id="B2YDEnZmjGP8R_UpLVgf-117" value="uploads" style="shape=rhombus;perimeter=rhombusPerimeter;whiteSpace=wrap;html=1;align=center;fillColor=#D5E8D4;" vertex="1" parent="1">
          <mxGeometry x="385" y="300" width="80" height="40" as="geometry" />
        </mxCell>
        <mxCell id="B2YDEnZmjGP8R_UpLVgf-118" value="" style="endArrow=none;html=1;rounded=0;entryX=1;entryY=0.5;entryDx=0;entryDy=0;exitX=0;exitY=0;exitDx=0;exitDy=0;" edge="1" parent="1" source="B2YDEnZmjGP8R_UpLVgf-2" target="B2YDEnZmjGP8R_UpLVgf-117">
          <mxGeometry relative="1" as="geometry">
            <mxPoint x="300" y="410" as="sourcePoint" />
            <mxPoint x="460" y="410" as="targetPoint" />
          </mxGeometry>
        </mxCell>
        <mxCell id="B2YDEnZmjGP8R_UpLVgf-119" value="N" style="resizable=0;html=1;align=right;verticalAlign=bottom;" connectable="0" vertex="1" parent="B2YDEnZmjGP8R_UpLVgf-118">
          <mxGeometry x="1" relative="1" as="geometry" />
        </mxCell>
        <mxCell id="B2YDEnZmjGP8R_UpLVgf-120" value="" style="endArrow=none;html=1;rounded=0;entryX=0;entryY=0.5;entryDx=0;entryDy=0;exitX=1;exitY=1;exitDx=0;exitDy=0;" edge="1" parent="1" source="B2YDEnZmjGP8R_UpLVgf-1" target="B2YDEnZmjGP8R_UpLVgf-117">
          <mxGeometry relative="1" as="geometry">
            <mxPoint x="300" y="420" as="sourcePoint" />
            <mxPoint x="460" y="420" as="targetPoint" />
          </mxGeometry>
        </mxCell>
        <mxCell id="B2YDEnZmjGP8R_UpLVgf-121" value="1" style="resizable=0;html=1;align=right;verticalAlign=bottom;" connectable="0" vertex="1" parent="B2YDEnZmjGP8R_UpLVgf-120">
          <mxGeometry x="1" relative="1" as="geometry" />
        </mxCell>
        <mxCell id="B2YDEnZmjGP8R_UpLVgf-122" value="writes" style="shape=rhombus;perimeter=rhombusPerimeter;whiteSpace=wrap;html=1;align=center;fillColor=#D5E8D4;" vertex="1" parent="1">
          <mxGeometry x="250" y="420" width="80" height="40" as="geometry" />
        </mxCell>
        <mxCell id="B2YDEnZmjGP8R_UpLVgf-123" value="" style="endArrow=none;html=1;rounded=0;entryX=0.5;entryY=1;entryDx=0;entryDy=0;exitX=0;exitY=0;exitDx=0;exitDy=0;" edge="1" parent="1" source="B2YDEnZmjGP8R_UpLVgf-6" target="B2YDEnZmjGP8R_UpLVgf-122">
          <mxGeometry relative="1" as="geometry">
            <mxPoint x="320" y="460" as="sourcePoint" />
            <mxPoint x="480" y="460" as="targetPoint" />
          </mxGeometry>
        </mxCell>
        <mxCell id="B2YDEnZmjGP8R_UpLVgf-124" value="N" style="resizable=0;html=1;align=right;verticalAlign=bottom;" connectable="0" vertex="1" parent="B2YDEnZmjGP8R_UpLVgf-123">
          <mxGeometry x="1" relative="1" as="geometry" />
        </mxCell>
        <mxCell id="B2YDEnZmjGP8R_UpLVgf-125" value="" style="endArrow=none;html=1;rounded=0;entryX=0.5;entryY=0;entryDx=0;entryDy=0;exitX=0.75;exitY=1;exitDx=0;exitDy=0;" edge="1" parent="1" source="B2YDEnZmjGP8R_UpLVgf-1" target="B2YDEnZmjGP8R_UpLVgf-122">
          <mxGeometry relative="1" as="geometry">
            <mxPoint x="250" y="370" as="sourcePoint" />
            <mxPoint x="410" y="370" as="targetPoint" />
          </mxGeometry>
        </mxCell>
        <mxCell id="B2YDEnZmjGP8R_UpLVgf-126" value="1" style="resizable=0;html=1;align=right;verticalAlign=bottom;" connectable="0" vertex="1" parent="B2YDEnZmjGP8R_UpLVgf-125">
          <mxGeometry x="1" relative="1" as="geometry" />
        </mxCell>
        <mxCell id="B2YDEnZmjGP8R_UpLVgf-127" value="rates" style="shape=rhombus;perimeter=rhombusPerimeter;whiteSpace=wrap;html=1;align=center;fillColor=#D5E8D4;" vertex="1" parent="1">
          <mxGeometry x="350" y="380" width="90" height="40" as="geometry" />
        </mxCell>
        <mxCell id="B2YDEnZmjGP8R_UpLVgf-62" value="Creation Date" style="ellipse;whiteSpace=wrap;html=1;align=center;fillColor=#DAE8FC;" vertex="1" parent="1">
          <mxGeometry x="740" y="430" width="100" height="40" as="geometry" />
        </mxCell>
        <mxCell id="B2YDEnZmjGP8R_UpLVgf-129" value="" style="endArrow=none;html=1;rounded=0;entryX=1;entryY=0.5;entryDx=0;entryDy=0;exitX=0;exitY=0.5;exitDx=0;exitDy=0;" edge="1" parent="1" source="B2YDEnZmjGP8R_UpLVgf-2" target="B2YDEnZmjGP8R_UpLVgf-127">
          <mxGeometry relative="1" as="geometry">
            <mxPoint x="430" y="480" as="sourcePoint" />
            <mxPoint x="590" y="480" as="targetPoint" />
          </mxGeometry>
        </mxCell>
        <mxCell id="B2YDEnZmjGP8R_UpLVgf-130" value="N" style="resizable=0;html=1;align=right;verticalAlign=bottom;" connectable="0" vertex="1" parent="B2YDEnZmjGP8R_UpLVgf-129">
          <mxGeometry x="1" relative="1" as="geometry" />
        </mxCell>
        <mxCell id="B2YDEnZmjGP8R_UpLVgf-131" value="" style="endArrow=none;html=1;rounded=0;entryX=0;entryY=0.5;entryDx=0;entryDy=0;exitX=0.849;exitY=0.99;exitDx=0;exitDy=0;exitPerimeter=0;" edge="1" parent="1" source="B2YDEnZmjGP8R_UpLVgf-1" target="B2YDEnZmjGP8R_UpLVgf-127">
          <mxGeometry relative="1" as="geometry">
            <mxPoint x="360" y="440" as="sourcePoint" />
            <mxPoint x="520" y="440" as="targetPoint" />
          </mxGeometry>
        </mxCell>
        <mxCell id="B2YDEnZmjGP8R_UpLVgf-132" value="N" style="resizable=0;html=1;align=right;verticalAlign=bottom;" connectable="0" vertex="1" parent="B2YDEnZmjGP8R_UpLVgf-131">
          <mxGeometry x="1" relative="1" as="geometry" />
        </mxCell>
        <mxCell id="B2YDEnZmjGP8R_UpLVgf-133" value="rating" style="ellipse;whiteSpace=wrap;html=1;align=center;dashed=1;fillColor=#EAFFE9;" vertex="1" parent="1">
          <mxGeometry x="345" y="440" width="100" height="40" as="geometry" />
        </mxCell>
        <mxCell id="B2YDEnZmjGP8R_UpLVgf-134" value="" style="edgeStyle=orthogonalEdgeStyle;rounded=0;orthogonalLoop=1;jettySize=auto;html=1;" edge="1" parent="1" source="B2YDEnZmjGP8R_UpLVgf-127" target="B2YDEnZmjGP8R_UpLVgf-133">
          <mxGeometry relative="1" as="geometry" />
        </mxCell>
      </root>
    </mxGraphModel>
  </diagram>
</mxfile>
